<svg xmlns="http://www.w3.org/2000/svg" width="400" height="300" viewBox="0 0 400 300">
  <!-- Background -->
  <rect width="400" height="300" fill="#F1F8E9" />
  
  <!-- Education Support Illustration -->
  <!-- School/Classroom -->
  <rect x="50" y="100" width="300" height="150" fill="#FFFFFF" stroke="#4CAF50" stroke-width="3" />
  <rect x="50" y="80" width="300" height="20" fill="#4CAF50" />
  
  <!-- Windows -->
  <rect x="80" y="120" width="40" height="40" fill="#81C784" />
  <rect x="180" y="120" width="40" height="40" fill="#81C784" />
  <rect x="280" y="120" width="40" height="40" fill="#81C784" />
  
  <!-- Door -->
  <rect x="170" y="180" width="60" height="70" fill="#795548" />
  <circle cx="220" cy="215" r="5" fill="#FFC107" />
  
  <!-- Books -->
  <rect x="70" y="190" width="30" height="40" fill="#FF5722" />
  <rect x="75" y="185" width="30" height="40" fill="#2196F3" />
  <rect x="80" y="180" width="30" height="40" fill="#9C27B0" />
  
  <!-- Children -->
  <!-- Child 1 -->
  <circle cx="300" cy="200" r="15" fill="#4CAF50" />
  <rect x="295" y="215" width="10" height="20" fill="#388E3C" />
  
  <!-- Child 2 -->
  <circle cx="330" cy="200" r="15" fill="#8BC34A" />
  <rect x="325" y="215" width="10" height="20" fill="#689F38" />
  
  <!-- Title -->
  <rect x="50" y="260" width="300" height="30" rx="5" fill="#4CAF50" opacity="0.8" />
  <text x="200" y="280" font-family="Arial" font-size="16" text-anchor="middle" fill="#FFFFFF">Education Support</text>
</svg>